<svg width="121" height="65" viewBox="0 0 121 65" fill="none" xmlns="http://www.w3.org/2000/svg">
<path d="M84.6665 22.5186C83.4927 22.7133 82.1242 23.4698 81.2119 24.4211C80.867 24.7771 80.7947 24.9051 80.9338 24.9051C81.0728 24.9051 81.6125 25.2222 82.1632 25.6394C83.1534 26.3793 83.9767 27.3472 84.5886 28.4821L84.8223 28.9104L85.1839 28.5766C86.3521 27.5085 87.576 27.1803 88.8054 27.5975C89.7177 27.9091 90.4019 28.3875 91.5868 29.5446C92.0374 29.9841 92.4825 30.379 92.5715 30.4235C92.9498 30.6127 93.7175 30.7017 95.6311 30.774C97.3612 30.8407 98.3737 30.9854 98.9021 31.2524C99.0412 31.3247 99.6643 31.8921 100.443 32.6598C102.218 34.4066 103.097 35.1298 104.003 35.586C104.643 35.9086 105.066 35.9809 106.59 36.031C107.375 36.0532 108.02 36.1033 108.159 36.1423C108.498 36.2479 108.643 36.4204 108.632 36.7097C108.615 37.1046 108.37 37.5163 107.847 38.0337C107.452 38.4286 107.269 38.5621 106.796 38.8069C106.479 38.9682 105.978 39.1629 105.683 39.2464C105.149 39.391 105.127 39.3966 103.542 39.3799C101.856 39.3688 101.389 39.4077 100.938 39.6024C100.515 39.7804 100.499 39.8305 100.794 40.142C101.283 40.6649 101.522 41.3214 101.489 42.0334C101.461 42.6899 101.255 43.1182 100.738 43.6356C100.07 44.2976 99.2637 44.6258 98.2735 44.6258C97.5837 44.6258 97.3111 44.5256 96.9384 44.1474C96.3932 43.5855 96.1374 42.5953 96.4433 42.2671C96.5045 42.2003 96.5935 42.1503 96.6491 42.1503C96.7771 42.1503 97.0775 42.3394 97.3223 42.573C97.784 43.0125 98.4682 43.1738 98.8632 42.9346C99.2693 42.6899 99.4974 42.1948 99.4974 41.5773C99.4974 40.3312 98.9355 39.8416 97.4391 39.7749C95.8425 39.7081 94.0791 40.3312 93.1945 41.2824C92.705 41.8054 92.4213 42.3839 92.349 43.0181C92.2822 43.6078 92.4825 44.4088 92.9108 45.2822C93.6674 46.8287 95.0414 47.7633 97.0775 48.136C97.7228 48.2528 99.592 48.2973 100.471 48.225C102.301 48.0637 103.542 47.0902 105.85 43.9972C107.135 42.2782 107.564 41.8054 108.27 41.3492C109.922 40.2811 112.715 39.2631 114.907 38.9293C115.964 38.768 117.026 38.4064 118.2 37.8056C119.624 37.0713 120.492 36.3536 120.18 36.1645C120.142 36.1423 119.847 36.1033 119.524 36.0811C118.284 35.9976 117.471 35.6416 115.402 34.262C114.623 33.7391 113.716 33.1104 113.377 32.8601C111.797 31.6696 111.096 31.2691 110.095 30.9798C109.806 30.9019 109.494 30.8853 107.842 30.8853C106.19 30.8853 105.873 30.8686 105.544 30.7851C104.376 30.4792 103.586 30.0897 100.749 28.4264C99.3472 27.6087 98.5628 27.2471 97.8619 27.1024C97.5003 27.0301 97.1109 27.0134 95.8036 27.0246C94.3961 27.0357 94.1347 27.0246 93.7953 26.9355C93.0165 26.7353 92.4602 26.3848 91.1251 25.2667C90.2629 24.5435 89.918 24.2876 89.2059 23.837C87.4035 22.7077 85.9849 22.296 84.6665 22.5186Z" fill="#5A442E"/>
<path d="M76.0774 25.4336C74.8034 25.6505 73.4238 26.3459 72.4114 27.2749C72.1889 27.4807 71.716 27.9925 71.36 28.4042C69.7634 30.2678 68.7954 30.9632 67.4548 31.2135C67.1655 31.2691 66.3922 31.3247 65.4521 31.3581C62.3869 31.4694 61.0741 31.831 59.9448 32.8824C59.6833 33.1271 59.4664 33.3497 59.4552 33.3719C59.4441 33.3997 59.5164 33.4164 59.611 33.4164C59.9948 33.4164 60.8571 33.6946 61.38 33.9838C61.9919 34.3176 63.149 35.1799 63.9501 35.8975C64.0558 35.9921 64.295 36.2035 64.4786 36.3648C64.6622 36.5261 65.1239 36.9656 65.5077 37.3383C67.4325 39.2242 68.317 40.2533 69.1793 41.6218C69.6911 42.4395 69.8635 42.6565 70.3253 43.1071C71.0429 43.8025 71.9274 44.2976 72.9899 44.598C73.7743 44.8149 74.3417 44.8761 75.7213 44.8761C76.7227 44.8761 76.9007 44.8928 77.3791 45.0096C78.5028 45.2989 79.3818 45.8051 81.6125 47.4685C83.9601 49.2152 84.9225 49.6547 86.3855 49.6603C88.1434 49.6658 90.046 49.065 91.4868 48.0581C92.1265 47.6131 92.8219 47.0791 92.8219 47.0401C92.8219 47.0179 92.7774 46.9845 92.7162 46.9622C92.5382 46.9066 92.0598 46.3559 91.8762 45.9887C91.6203 45.488 91.5535 45.2711 91.3978 44.4923C91.3199 44.114 91.2476 43.7858 91.2364 43.7635C91.2198 43.7357 91.0251 43.7913 90.797 43.8804C89.1281 44.5257 86.9697 44.1696 84.7 42.8623C83.8099 42.3505 83.3426 42.0168 82.2801 41.1601C81.4345 40.4758 80.7892 40.2756 79.5876 40.3367C76.6726 40.4758 75.2652 40.4369 74.1971 40.1754C72.8342 39.8416 72.3502 39.4967 70.9539 37.8668C70.214 37.0045 69.6633 36.4705 69.3462 36.3092C68.5841 35.9198 69.5242 35.0241 71.0151 34.7182C71.5269 34.618 72.1165 34.6291 73.1457 34.7627C73.6408 34.8238 73.7187 34.8238 73.9801 34.7293C74.2305 34.6403 75.0315 34.1118 75.3931 33.7891L75.5155 33.6779L75.3597 33.4498C74.9203 32.8101 74.6644 32.1036 74.6644 31.525C74.6588 30.7518 74.9982 30.2845 75.8938 29.8339C76.4445 29.5613 77.1065 29.3388 77.6628 29.2386C78.1078 29.1608 78.7476 29.2386 79.0869 29.4111C79.6766 29.7115 80.0827 30.3568 80.1272 31.0522C80.1495 31.4304 80.1439 31.4471 79.977 31.6085C79.8324 31.742 79.7489 31.7753 79.4541 31.792L79.1092 31.8087L78.7977 31.5139C78.4528 31.1857 77.9465 30.8853 77.6239 30.8296C77.1621 30.7406 76.7561 30.9632 76.5057 31.436C76.4111 31.614 76.3833 31.7531 76.3889 32.0813C76.4 33.3218 77.329 34.0506 78.8867 34.0395C80.9505 34.0283 82.5082 32.8323 83.0422 30.863C83.1924 30.3067 83.2091 29.272 83.07 28.7435C82.8642 27.9647 82.3635 27.1859 81.7405 26.6852C81.1285 26.1901 79.9881 25.7228 78.831 25.4892C78.2692 25.3724 78.0022 25.3501 77.3235 25.3557C76.8673 25.3612 76.3054 25.3946 76.0774 25.4336Z" fill="#5A442E"/>
<path d="M87.2256 28.9605C86.5246 29.1496 85.7625 29.6225 84.9726 30.3457L84.6555 30.6349L84.6499 31.0243C84.6443 31.2858 84.5998 31.525 84.5053 31.7753C84.127 32.7822 83.337 33.5054 81.8017 34.2453C80.9505 34.657 80.2719 34.885 79.5932 34.9796C78.8477 35.0853 78.1524 34.9629 77.1288 34.5568C76.7116 34.3899 76.3444 34.2509 76.3166 34.2509C76.2832 34.2509 76.2276 34.3287 76.1886 34.4178C76.0551 34.7404 75.6824 34.9963 75.076 35.191C74.631 35.3301 74.2639 35.3801 72.4726 35.5582C70.4143 35.764 70.1973 35.8363 70.9038 36.1089C72.3224 36.6541 72.9621 37.0769 73.4628 37.8112C73.88 38.4175 74.3584 38.768 74.9926 38.9349C75.1984 38.9905 75.6379 39.0016 76.6893 38.985C79.7767 38.9293 80.0493 38.9349 80.6668 39.1073C81.3233 39.2909 82.3913 39.8027 83.109 40.2867C83.3871 40.4703 84.0547 40.9542 84.5887 41.3492C86.0017 42.4006 86.5524 42.7344 87.1866 42.9068C87.5705 43.007 89.6065 43.0793 90.4354 43.0181L90.9694 42.9736L91.0974 42.523C91.2587 41.9333 91.6982 41.0599 92.0876 40.5426C93.05 39.2742 94.5297 38.6901 96.7716 38.6846C97.734 38.6846 98.4739 38.7847 99.0079 39.0016L99.3306 39.1352L99.5642 38.8737C99.9759 38.4287 100.349 38.1394 100.76 37.9391C101.266 37.6943 101.611 37.661 102.435 37.7778C103.581 37.9391 104.499 37.8724 105.517 37.5553C106.006 37.4051 106.229 37.2882 106.229 37.1937C106.229 37.0602 105.394 36.8432 104.198 36.6708C103.291 36.5372 102.819 36.3481 101.973 35.7862C100.927 35.0909 99.8424 34.134 98.9968 33.1605C98.307 32.3762 97.9009 32.1703 96.855 32.0813C96.2765 32.0312 95.4532 32.0924 94.5464 32.2538C93.7732 32.3873 93.3559 32.3428 92.7385 32.0535C92.1766 31.7976 91.7482 31.4527 90.6802 30.4124C90.1628 29.9006 89.6121 29.4055 89.4619 29.2998C88.8833 28.9049 87.9487 28.7658 87.2256 28.9605Z" fill="#5A442E"/>
<path d="M32.438 0.0581055C31.2642 0.25281 29.8957 1.00937 28.9834 1.96064C28.6385 2.31667 28.5662 2.44462 28.7053 2.44462C28.8443 2.44462 29.3839 2.76171 29.9347 3.17893C30.9249 3.9188 31.7482 4.88676 32.3601 6.0216L32.5938 6.44995L32.9554 6.11617C34.1236 5.04808 35.3474 4.71987 36.5769 5.13709C37.4892 5.44862 38.1734 5.92703 39.3583 7.08413C39.8089 7.5236 40.254 7.91857 40.343 7.96308C40.7213 8.15222 41.4889 8.24123 43.4026 8.31354C45.1327 8.3803 46.1451 8.52494 46.6736 8.79196C46.8127 8.86428 47.4358 9.4317 48.2146 10.1994C49.9892 11.9462 50.8681 12.6693 51.7749 13.1255C52.4146 13.4482 52.8374 13.5205 54.3616 13.5705C55.146 13.5928 55.7913 13.6429 55.9304 13.6818C56.2697 13.7875 56.4144 13.96 56.4033 14.2492C56.3866 14.6442 56.1418 15.0559 55.6189 15.5732C55.2239 15.9682 55.0403 16.1017 54.5675 16.3465C54.2504 16.5078 53.7497 16.7025 53.4549 16.7859C52.9208 16.9306 52.8986 16.9361 51.3131 16.9194C49.6276 16.9083 49.1603 16.9473 48.7097 17.142C48.2869 17.32 48.2702 17.37 48.565 17.6816C49.0546 18.2045 49.2938 18.8609 49.2604 19.573C49.2326 20.2294 49.0268 20.6578 48.5094 21.1751C47.8419 21.8371 47.0352 22.1653 46.045 22.1653C45.3552 22.1653 45.0826 22.0652 44.7099 21.6869C44.1647 21.1251 43.9088 20.1348 44.2148 19.8066C44.276 19.7399 44.365 19.6898 44.4206 19.6898C44.5486 19.6898 44.849 19.8789 45.0937 20.1126C45.5555 20.5521 46.2397 20.7134 46.6347 20.4742C47.0408 20.2294 47.2689 19.7343 47.2689 19.1168C47.2689 17.8707 46.707 17.3812 45.2106 17.3144C43.614 17.2477 41.8505 17.8707 40.966 18.822C40.4765 19.3449 40.1928 19.9234 40.1205 20.5576C40.0537 21.1473 40.254 21.9484 40.6823 22.8218C41.4389 24.3683 42.8129 25.3028 44.849 25.6756C45.4943 25.7924 47.3634 25.8369 48.2424 25.7646C50.0726 25.6032 51.3131 24.6297 53.6218 21.5367C54.9068 19.8178 55.3352 19.3449 56.0417 18.8887C57.6939 17.8207 60.4865 16.8026 62.6783 16.4689C63.7352 16.3075 64.7978 15.9459 65.9715 15.3451C67.3957 14.6108 68.2635 13.8932 67.952 13.7041C67.913 13.6818 67.6182 13.6429 67.2955 13.6206C66.055 13.5372 65.2428 13.1811 63.1734 11.8015C62.3946 11.2786 61.4878 10.65 61.1485 10.3997C59.5686 9.20918 58.8676 8.80865 57.8663 8.51937C57.577 8.44149 57.2655 8.4248 55.6133 8.4248C53.9611 8.4248 53.644 8.40811 53.3158 8.32467C52.1476 8.01871 51.3576 7.6293 48.5205 5.96597C47.1187 5.14822 46.3343 4.78662 45.6334 4.64199C45.2718 4.56967 44.8824 4.55298 43.5751 4.56411C42.1676 4.57523 41.9062 4.56411 41.5668 4.4751C40.788 4.27483 40.2317 3.92437 38.8966 2.80621C38.0343 2.08302 37.6894 1.82713 36.9774 1.37653C35.175 0.247246 33.7564 -0.164413 32.438 0.0581055Z" fill="#5A442E"/>
<path d="M23.8489 2.97312C22.5749 3.19007 21.1953 3.88544 20.1829 4.81446C19.9603 5.02029 19.4875 5.53208 19.1315 5.94374C17.5349 7.80733 16.5669 8.5027 15.2263 8.75303C14.937 8.80866 14.1637 8.86429 13.2236 8.89767C10.1584 9.00893 8.84554 9.37052 7.71626 10.4219C7.4548 10.6667 7.23784 10.8892 7.22672 10.9115C7.21559 10.9393 7.28791 10.956 7.38248 10.956C7.76632 10.956 8.62858 11.2341 9.1515 11.5234C9.76343 11.8572 10.9205 12.7194 11.7216 13.437C11.8273 13.5316 12.0665 13.743 12.2501 13.9043C12.4337 14.0657 12.8954 14.5051 13.2792 14.8779C15.204 16.7637 16.0885 17.7929 16.9508 19.1613C17.4626 19.9791 17.635 20.1961 18.0967 20.6467C18.8144 21.342 19.6989 21.8371 20.7614 22.1375C21.5458 22.3545 22.1132 22.4157 23.4928 22.4157C24.4942 22.4157 24.6722 22.4324 25.1506 22.5492C26.2743 22.8385 27.1533 23.3447 29.384 25.008C31.7316 26.7548 32.694 27.1943 34.157 27.1998C35.9149 27.2054 37.8175 26.6046 39.2583 25.5977C39.898 25.1527 40.5934 24.6186 40.5934 24.5797C40.5934 24.5574 40.5489 24.524 40.4877 24.5018C40.3097 24.4462 39.8312 23.8954 39.6477 23.5283C39.3918 23.0276 39.325 22.8106 39.1693 22.0318C39.0914 21.6535 39.0191 21.3253 39.0079 21.3031C38.9912 21.2753 38.7965 21.3309 38.5685 21.4199C36.8996 22.0652 34.7411 21.7092 32.4714 20.4019C31.5814 19.8901 31.1141 19.5563 30.0516 18.6996C29.206 18.0154 28.5607 17.8151 27.3591 17.8763C24.4441 18.0154 23.0367 17.9764 21.9686 17.715C20.6056 17.3812 20.1217 17.0363 18.7254 15.4063C17.9855 14.5441 17.4348 14.01 17.1177 13.8487C16.3555 13.4593 17.2957 12.5637 18.7866 12.2577C19.2983 12.1576 19.888 12.1687 20.9172 12.3022C21.4123 12.3634 21.4902 12.3634 21.7516 12.2688C22.0019 12.1798 22.803 11.6513 23.1646 11.3287L23.287 11.2174L23.1312 10.9893C22.6918 10.3496 22.4359 9.64311 22.4359 9.06456C22.4303 8.29131 22.7696 7.82402 23.6653 7.37342C24.216 7.10083 24.878 6.87832 25.4343 6.77818C25.8793 6.7003 26.5191 6.77818 26.8584 6.95063C27.4481 7.25103 27.8542 7.89634 27.8987 8.59171C27.9209 8.96999 27.9154 8.98668 27.7485 9.148C27.6039 9.28152 27.5204 9.31489 27.2256 9.33158L26.8807 9.34827L26.5691 9.05343C26.2242 8.72522 25.718 8.42482 25.3954 8.36919C24.9336 8.28018 24.5275 8.5027 24.2772 8.97555C24.1826 9.15357 24.1548 9.29264 24.1604 9.62086C24.1715 10.8614 25.1005 11.5901 26.6581 11.579C28.722 11.5679 30.2796 10.3719 30.8137 8.40257C30.9639 7.84627 30.9806 6.81156 30.8415 6.28308C30.6357 5.50426 30.135 4.72545 29.5119 4.22478C28.9 3.72968 27.7596 3.26239 26.6025 3.02875C26.0407 2.91192 25.7736 2.88967 25.095 2.89524C24.6388 2.9008 24.0769 2.93418 23.8489 2.97312Z" fill="#5A442E"/>
<path d="M34.997 6.50001C34.2961 6.68915 33.534 7.162 32.744 7.88519L32.427 8.17446L32.4214 8.56387C32.4158 8.82533 32.3713 9.06454 32.2768 9.31487C31.8985 10.3218 31.1085 11.045 29.5732 11.7848C28.722 12.1965 28.0433 12.4246 27.3647 12.5191C26.6192 12.6248 25.9238 12.5024 24.9003 12.0964C24.483 11.9295 24.1159 11.7904 24.0881 11.7904C24.0547 11.7904 23.9991 11.8683 23.9601 11.9573C23.8266 12.2799 23.4539 12.5358 22.8475 12.7305C22.4025 12.8696 22.0353 12.9197 20.2441 13.0977C18.1858 13.3035 17.9688 13.3758 18.6753 13.6484C20.0939 14.1936 20.7336 14.6164 21.2343 15.3507C21.6515 15.957 22.1299 16.3075 22.7641 16.4744C22.9699 16.53 23.4094 16.5412 24.4608 16.5245C27.5482 16.4688 27.8208 16.4744 28.4383 16.6469C29.0947 16.8304 30.1628 17.3422 30.8804 17.8262C31.1586 18.0098 31.8262 18.4938 32.3602 18.8887C33.7732 19.9401 34.3239 20.2739 34.9581 20.4464C35.3419 20.5465 37.378 20.6188 38.2069 20.5576L38.7409 20.5131L38.8689 20.0625C39.0302 19.4728 39.4697 18.5995 39.8591 18.0821C40.8215 16.8137 42.3012 16.2296 44.5431 16.2241C45.5055 16.2241 46.2454 16.3242 46.7794 16.5412L47.102 16.6747L47.3357 16.4132C47.7474 15.9682 48.1201 15.6789 48.5317 15.4786C49.038 15.2339 49.3829 15.2005 50.2062 15.3173C51.3522 15.4786 52.27 15.4119 53.2881 15.0948C53.7776 14.9446 54.0001 14.8278 54.0001 14.7332C54.0001 14.5997 53.1657 14.3827 51.9696 14.2103C51.0629 14.0768 50.59 13.8876 49.7445 13.3258C48.6986 12.6304 47.6138 11.6736 46.7683 10.7C46.0785 9.91567 45.6724 9.70984 44.6265 9.62083C44.048 9.57077 43.2247 9.63196 42.3179 9.79328C41.5446 9.9268 41.1274 9.88229 40.5099 9.59302C39.9481 9.33712 39.5197 8.99222 38.4516 7.95194C37.9343 7.44015 37.3836 6.94505 37.2334 6.83935C36.6548 6.44438 35.7202 6.30531 34.997 6.50001Z" fill="#5A442E"/>
<path d="M25.2124 37.0889C24.0386 37.2836 22.6701 38.0402 21.7578 38.9915C21.4129 39.3475 21.3406 39.4754 21.4797 39.4754C21.6187 39.4754 22.1584 39.7925 22.7091 40.2098C23.6993 40.9496 24.5226 41.9176 25.1345 43.0524L25.3682 43.4808L25.7298 43.147C26.898 42.0789 28.1219 41.7507 29.3513 42.1679C30.2636 42.4794 30.9478 42.9579 32.1327 44.115C32.5833 44.5544 33.0284 44.9494 33.1174 44.9939C33.4957 45.183 34.2634 45.272 36.177 45.3444C37.9071 45.4111 38.9196 45.5558 39.448 45.8228C39.5871 45.8951 40.2102 46.4625 40.989 47.2302C42.7636 48.977 43.6425 49.7002 44.5493 50.1563C45.189 50.479 45.6118 50.5513 47.1361 50.6014C47.9204 50.6236 48.5657 50.6737 48.7048 50.7126C49.0442 50.8183 49.1888 50.9908 49.1777 51.28C49.161 51.675 48.9162 52.0867 48.3933 52.604C47.9983 52.999 47.8147 53.1325 47.3419 53.3773C47.0248 53.5386 46.5241 53.7333 46.2293 53.8168C45.6953 53.9614 45.673 53.967 44.0876 53.9503C42.402 53.9391 41.9347 53.9781 41.4841 54.1728C41.0613 54.3508 41.0446 54.4009 41.3395 54.7124C41.829 55.2353 42.0682 55.8917 42.0348 56.6038C42.007 57.2602 41.8012 57.6886 41.2838 58.2059C40.6163 58.8679 39.8096 59.1961 38.8194 59.1961C38.1296 59.1961 37.857 59.096 37.4843 58.7177C36.9391 58.1559 36.6833 57.1657 36.9892 56.8375C37.0504 56.7707 37.1394 56.7206 37.195 56.7206C37.323 56.7206 37.6234 56.9098 37.8682 57.1434C38.3299 57.5829 39.0141 57.7442 39.4091 57.505C39.8152 57.2602 40.0433 56.7651 40.0433 56.1476C40.0433 54.9015 39.4814 54.412 37.985 54.3452C36.3884 54.2785 34.625 54.9015 33.7404 55.8528C33.2509 56.3757 32.9672 56.9543 32.8949 57.5885C32.8281 58.1781 33.0284 58.9792 33.4567 59.8526C34.2133 61.3991 35.5873 62.3337 37.6234 62.7064C38.2687 62.8232 40.1379 62.8677 41.0168 62.7954C42.847 62.6341 44.0876 61.6605 46.3962 58.5675C47.6812 56.8486 48.1096 56.3757 48.8161 55.9196C50.4683 54.8515 53.2609 53.8335 55.4527 53.4997C56.5097 53.3383 57.5722 52.9768 58.746 52.376C60.1701 51.6416 61.0379 50.924 60.7264 50.7349C60.6874 50.7126 60.3926 50.6737 60.07 50.6514C58.8294 50.568 58.0172 50.212 55.9478 48.8323C55.169 48.3094 54.2622 47.6808 53.9229 47.4305C52.343 46.24 51.6421 45.8395 50.6407 45.5502C50.3515 45.4723 50.0399 45.4556 48.3877 45.4556C46.7355 45.4556 46.4184 45.4389 46.0902 45.3555C44.922 45.0495 44.1321 44.6601 41.2949 42.9968C39.8931 42.179 39.1087 41.8174 38.4078 41.6728C38.0462 41.6005 37.6568 41.5838 36.3495 41.5949C34.942 41.6061 34.6806 41.5949 34.3412 41.5059C33.5624 41.3057 33.0061 40.9552 31.671 39.837C30.8088 39.1138 30.4639 38.858 29.7518 38.4074C27.9494 37.2781 26.5308 36.8664 25.2124 37.0889Z" fill="#5A442E"/>
<path d="M16.6233 40.0039C15.3493 40.2209 13.9697 40.9163 12.9573 41.8453C12.7348 42.0511 12.2619 42.5629 11.9059 42.9746C10.3093 44.8382 9.34135 45.5335 8.00067 45.7839C7.7114 45.8395 6.93815 45.8951 5.99801 45.9285C2.93281 46.0398 1.61995 46.4013 0.490672 47.4527C0.229213 47.6975 0.0122573 47.92 0.00113142 47.9423C-0.0099945 47.9701 0.062324 47.9868 0.156894 47.9868C0.540739 47.9868 1.403 48.2649 1.92592 48.5542C2.53784 48.888 3.69494 49.7503 4.49601 50.4679C4.6017 50.5624 4.84091 50.7738 5.02449 50.9352C5.20807 51.0965 5.66979 51.536 6.05364 51.9087C7.97842 53.7945 8.86293 54.8237 9.72519 56.1922C10.237 57.0099 10.4094 57.2269 10.8712 57.6775C11.5888 58.3728 12.4733 58.8679 13.5358 59.1683C14.3202 59.3853 14.8876 59.4465 16.2672 59.4465C17.2686 59.4465 17.4466 59.4632 17.925 59.58C19.0487 59.8693 19.9277 60.3755 22.1584 62.0388C24.506 63.7856 25.4684 64.2251 26.9314 64.2306C28.6893 64.2362 30.5919 63.6354 32.0327 62.6285C32.6724 62.1835 33.3678 61.6494 33.3678 61.6105C33.3678 61.5882 33.3233 61.5549 33.2621 61.5326C33.0841 61.477 32.6057 60.9262 32.4221 60.5591C32.1662 60.0584 32.0994 59.8415 31.9437 59.0627C31.8658 58.6844 31.7935 58.3562 31.7823 58.3339C31.7657 58.3061 31.5709 58.3617 31.3429 58.4507C29.674 59.096 27.5156 58.74 25.2459 57.4327C24.3558 56.9209 23.8885 56.5871 22.826 55.7304C21.9804 55.0462 21.3351 54.8459 20.1335 54.9071C17.2185 55.0462 15.8111 55.0073 14.743 54.7458C13.3801 54.412 12.8961 54.0671 11.4998 52.4372C10.7599 51.5749 10.2092 51.0409 9.89208 50.8795C9.12995 50.4901 10.0701 49.5945 11.561 49.2885C12.0728 49.1884 12.6624 49.1995 13.6916 49.333C14.1867 49.3942 14.2646 49.3942 14.526 49.2997C14.7764 49.2106 15.5774 48.6822 15.939 48.3595L16.0614 48.2483L15.9056 48.0202C15.4662 47.3804 15.2103 46.6739 15.2103 46.0954C15.2047 45.3221 15.5441 44.8548 16.4397 44.4042C16.9904 44.1317 17.6524 43.9091 18.2087 43.809C18.6537 43.7311 19.2935 43.809 19.6328 43.9815C20.2225 44.2819 20.6286 44.9272 20.6731 45.6225C20.6954 46.0008 20.6898 46.0175 20.5229 46.1788C20.3783 46.3123 20.2948 46.3457 20 46.3624L19.6551 46.3791L19.3436 46.0843C18.9987 45.756 18.4924 45.4556 18.1698 45.4C17.708 45.311 17.3019 45.5335 17.0516 46.0064C16.957 46.1844 16.9292 46.3235 16.9348 46.6517C16.9459 47.8922 17.8749 48.621 19.4326 48.6098C21.4964 48.5987 23.0541 47.4027 23.5881 45.4334C23.7383 44.8771 23.755 43.8424 23.6159 43.3139C23.4101 42.5351 22.9094 41.7563 22.2864 41.2556C21.6744 40.7605 20.534 40.2932 19.3769 40.0596C18.8151 39.9427 18.5481 39.9205 17.8694 39.9261C17.4132 39.9316 16.8513 39.965 16.6233 40.0039Z" fill="#5A442E"/>
<path d="M27.7715 43.5309C27.0705 43.72 26.3084 44.1929 25.5185 44.916L25.2014 45.2053L25.1958 45.5947C25.1902 45.8562 25.1457 46.0954 25.0512 46.3457C24.6729 47.3526 23.8829 48.0758 22.3476 48.8157C21.4964 49.2273 20.8177 49.4554 20.1391 49.55C19.3936 49.6557 18.6983 49.5333 17.6747 49.1272C17.2575 48.9603 16.8903 48.8212 16.8625 48.8212C16.8291 48.8212 16.7735 48.8991 16.7345 48.9881C16.601 49.3108 16.2283 49.5667 15.6219 49.7614C15.1769 49.9005 14.8097 49.9505 13.0185 50.1285C10.9602 50.3344 10.7432 50.4067 11.4497 50.6793C12.8683 51.2244 13.508 51.6472 14.0087 52.3815C14.4259 52.9879 14.9043 53.3384 15.5385 53.5053C15.7443 53.5609 16.1838 53.572 17.2352 53.5553C20.3226 53.4997 20.5952 53.5053 21.2127 53.6777C21.8692 53.8613 22.9372 54.3731 23.6549 54.8571C23.933 55.0406 24.6006 55.5246 25.1346 55.9196C26.5476 56.971 27.0983 57.3048 27.7325 57.4772C28.1164 57.5773 30.1524 57.6497 30.9813 57.5885L31.5153 57.544L31.6433 57.0934C31.8046 56.5037 32.2441 55.6303 32.6335 55.113C33.5959 53.8446 35.0756 53.2605 37.3175 53.2549C38.2799 53.2549 39.0198 53.3551 39.5538 53.572L39.8765 53.7055L40.1101 53.4441C40.5218 52.999 40.8945 52.7098 41.3061 52.5095C41.8124 52.2647 42.1573 52.2313 42.9806 52.3482C44.1266 52.5095 45.0445 52.4427 46.0625 52.1256C46.552 51.9754 46.7745 51.8586 46.7745 51.764C46.7745 51.6305 45.9401 51.4136 44.7441 51.2411C43.8373 51.1076 43.3644 50.9185 42.5189 50.3566C41.473 49.6612 40.3883 48.7044 39.5427 47.7309C38.8529 46.9465 38.4468 46.7407 37.4009 46.6517C36.8224 46.6016 35.9991 46.6628 35.0923 46.8241C34.3191 46.9576 33.9018 46.9131 33.2844 46.6239C32.7225 46.368 32.2941 46.0231 31.2261 44.9828C30.7087 44.471 30.158 43.9759 30.0078 43.8702C29.4292 43.4752 28.4946 43.3362 27.7715 43.5309Z" fill="#5A442E"/>
</svg>
